<svg id="レイヤー_1" data-name="レイヤー 1" xmlns="http://www.w3.org/2000/svg" viewBox="0 0 36 36">
  <defs>
    <style>
      .cls-1 {
        fill: #231815;
      }
    </style>
  </defs>
  <title>github</title>
  <g>
    <path class="cls-1" d="M18,0A18,18,0,1,0,36,18,18,18,0,0,0,18,0Zm0,33A15,15,0,1,1,33,18,15.06,15.06,0,0,1,18,33Z"/>
    <path class="cls-1" d="M29.12,14.48v0l0-.08v0l0-.07,0,0,0-.06,0,0,0-.06,0,0,0-.05,0,0-0.05,0,0,0h0L18.53,7a1,1,0,0,0-1.06,0L7.3,13.81h0l0,0-0.05,0,0,0L7.1,14l0,0,0,0.06,0,0L7,14.2l0,0,0,0.07v0l0,0.08v0a0.92,0.92,0,0,0,0,.12v6.78a0.94,0.94,0,0,0,0,.13v0l0,0.08v0l0,0.07,0,0,0,0.06,0,0,0,0.06,0,0,0,0.05,0,0,0.05,0,0,0h0L17.47,29a1,1,0,0,0,1.06,0L28.7,22.19h0l0,0,0.05,0,0,0,0-.05,0,0,0-.06,0,0,0-.06,0,0,0-.07v0l0-.08v0a1,1,0,0,0,0-.13V14.61A1,1,0,0,0,29.12,14.48ZM19,9.61l7.49,5L23.1,16.85,19,14.08V9.61ZM17,9.61v4.46L12.9,16.85,9.55,14.61ZM8.78,16.4L11.18,18,8.78,19.6V16.4Zm8.26,10-7.49-5,3.35-2.24L17,21.92v4.46Zm1-6.12L14.62,18,18,15.74,21.38,18Zm1,6.12V21.92l4.15-2.77,3.35,2.24Zm8.26-6.79L24.82,18l2.39-1.6v3.2Z"/>
  </g>
</svg>
