<?xml version="1.0" encoding="utf-8"?>
<!-- Generator: Adobe Illustrator 19.2.1, SVG Export Plug-In . SVG Version: 6.00 Build 0)  -->
<svg version="1.1" id="レイヤー_1" xmlns="http://www.w3.org/2000/svg" xmlns:xlink="http://www.w3.org/1999/xlink" x="0px"
	 y="0px" viewBox="0 0 35 35" style="enable-background:new 0 0 35 35;" xml:space="preserve">
<style type="text/css">
	.st0{fill:#231815;}
</style>
<title>linkdin</title>
<path class="st0" d="M29.8,29.8h-5.2v-8.1c0-1.9,0-4.4-2.7-4.4s-3.1,2.1-3.1,4.3v8.3h-5.2V13.1h5v2.3h0.1c1-1.7,2.9-2.8,4.9-2.7
	c5.3,0,6.2,3.5,6.2,8L29.8,29.8L29.8,29.8L29.8,29.8z M7.8,10.8c-1.7,0-3-1.3-3-3s1.3-3,3-3s3,1.3,3,3S9.5,10.8,7.8,10.8L7.8,10.8
	L7.8,10.8z M10.4,29.8H5.2V13.1h5.2L10.4,29.8L10.4,29.8L10.4,29.8z M32.4,0H2.6C1.2,0,0,1.1,0,2.5c0,0,0,0,0,0v30
	C0,33.9,1.2,35,2.6,35h29.8c1.4,0,2.6-1.1,2.6-2.5c0,0,0,0,0,0v-30C35,1.1,33.8,0,32.4,0L32.4,0z"/>
</svg>
