<?xml version="1.0" standalone="no"?>
<!DOCTYPE svg PUBLIC "-//W3C//DTD SVG 20010904//EN"
 "http://www.w3.org/TR/2001/REC-SVG-20010904/DTD/svg10.dtd">
<svg version="1.0" xmlns="http://www.w3.org/2000/svg"
 width="700.000000pt" height="700.000000pt" viewBox="0 0 700.000000 700.000000"
 preserveAspectRatio="xMidYMid meet">
<metadata>
Created by potrace 1.11, written by Peter Selinger 2001-2013
</metadata>
<g transform="translate(0.000000,700.000000) scale(0.100000,-0.100000)"
fill="#000000" stroke="none">
<path d="M2231 6514 c-58 -49 -101 -183 -127 -399 -3 -27 -7 -61 -10 -75 -2
-14 -6 -90 -9 -170 -6 -123 -3 -159 13 -235 25 -113 25 -235 -1 -263 -10 -11
-37 -23 -60 -26 -157 -25 -416 -168 -592 -327 -16 -15 -41 -37 -55 -49 -14
-12 -61 -56 -105 -98 -44 -43 -100 -94 -125 -113 -120 -96 -287 -290 -358
-414 -66 -117 -159 -347 -176 -435 -2 -14 -7 -32 -10 -40 -3 -8 -8 -28 -11
-45 -2 -16 -10 -57 -15 -90 -18 -96 -18 -100 -25 -182 -4 -43 -9 -94 -11 -113
-4 -47 -5 -394 0 -445 2 -22 7 -71 10 -110 8 -77 28 -225 40 -281 2 -12 7 -39
10 -59 22 -137 107 -442 180 -647 60 -169 96 -243 185 -382 42 -65 81 -125 86
-134 61 -95 214 -236 355 -325 243 -153 789 -339 1210 -411 61 -10 97 -16 130
-21 19 -2 44 -6 55 -9 11 -2 51 -7 88 -11 37 -3 76 -8 87 -10 10 -2 65 -7 122
-10 56 -4 121 -9 143 -11 61 -5 540 -5 625 0 120 8 222 17 260 21 19 2 62 7
95 10 56 5 249 31 305 40 14 2 43 7 65 10 22 3 63 10 90 15 28 5 64 12 80 15
33 5 134 25 150 29 10 3 79 17 105 21 56 10 439 108 502 129 123 40 218 89
298 153 119 95 191 202 279 413 47 112 67 158 99 230 34 77 149 390 181 495
32 104 75 293 87 380 3 28 8 59 10 70 18 90 24 430 11 565 -7 65 -26 197 -43
294 -15 86 -79 298 -129 427 -253 646 -759 1135 -1430 1382 -38 14 -82 29 -97
33 -16 3 -28 8 -28 10 0 3 13 30 29 62 32 65 77 184 84 228 3 16 13 65 22 109
18 85 25 309 13 405 -23 181 -135 316 -271 325 -32 2 -44 -3 -71 -31 -48 -49
-62 -86 -85 -214 -46 -257 -55 -364 -54 -622 l0 -196 -286 3 c-157 2 -497 7
-756 11 -489 7 -596 7 -630 1 -30 -6 -113 33 -134 62 -11 15 -21 40 -24 56 -3
17 -8 41 -11 55 -18 77 -24 150 -31 398 -2 95 -6 176 -9 180 -2 4 -6 30 -10
57 -15 132 -108 297 -183 326 -46 17 -99 11 -132 -17z"/>
</g>
</svg>
