<?xml version="1.0" encoding="utf-8"?>
<!-- Generator: Adobe Illustrator 19.2.1, SVG Export Plug-In . SVG Version: 6.00 Build 0)  -->
<svg version="1.1" id="レイヤー_1" xmlns="http://www.w3.org/2000/svg" xmlns:xlink="http://www.w3.org/1999/xlink" x="0px"
	 y="0px" viewBox="0 0 32 32" style="enable-background:new 0 0 32 32;" xml:space="preserve">
<style type="text/css">
	.st0{fill:#FAFAFA;}
	.st1{fill:#1A1A1A;}
</style>
<title>face</title>
<rect x="-236" y="-11.8" class="st0" width="166" height="158"/>
<path class="st1" d="M-170,24.2c0.3-1.3,1-2.8,2.3-2.7c0.6,0.1,1.1,0.4,1.4,0.9c2.8,3.2,1.3,8.5,2.2,12.8c0.1,0.6,0.4,1.1,0.8,1.6
	c0.5,0.3,1.1,0.5,1.7,0.4l22.2,0.3c-0.4-4.1-0.1-8.2,1-12.1c0.1-0.7,0.4-1.3,0.8-1.8c1-1.1,2.8-0.8,3.8,0.2c1,1,1.4,2.5,1.5,4
	c0.4,3.6-0.3,7.2-2,10.4c8,2.4,14.7,7.8,18.9,15c4.2,7.4,5.7,16.1,4,24.5c-0.9,4.5-2.7,8.7-4.5,12.8c-1,2.3-2.2,4.7-4.1,6.2
	c-1.9,1.6-4.2,2.2-6.5,2.8c-16.1,3.9-33.5,4.7-49-1.4c-3.2-1.3-6.4-2.9-8.7-5.5c-1.6-1.9-2.9-4.1-3.7-6.5
	c-2.5-6.1-3.8-12.6-3.9-19.2c-0.1-5.6,0.8-11.3,3.9-15.9c1.5-2.1,3.3-4,5.2-5.8c3.1-3,6.5-6.2,10.7-7.4c1.3-0.4,1.5,0,1.7-1.4
	c0.1-1.2-0.4-2.7-0.5-3.9C-170.8,29.7-170.6,26.9-170,24.2z"/>
<path class="st1" d="M9.8,3c0.1-0.4,0.3-1,0.8-0.9c0.2,0,0.4,0.1,0.5,0.3c1,1.1,0.4,2.9,0.8,4.3c0,0.2,0.1,0.4,0.3,0.5
	c0.2,0.1,0.4,0.2,0.6,0.1l7.5,0.1c-0.1-1.4,0-2.8,0.3-4.1c0-0.2,0.1-0.4,0.3-0.6C21,2.4,21.6,2.5,22,2.9c0.3,0.3,0.5,0.9,0.5,1.3
	c0.1,1.2-0.1,2.4-0.7,3.5c2.7,0.8,5,2.6,6.4,5c1.4,2.5,1.9,5.4,1.3,8.3c-0.3,1.5-0.9,2.9-1.5,4.3c-0.3,0.8-0.7,1.6-1.4,2.1
	c-0.6,0.5-1.4,0.7-2.2,0.9C19,29.7,13.2,30,8,27.9c-1.1-0.4-2.1-1-2.9-1.9c-0.5-0.7-1-1.4-1.3-2.2c-0.8-2.1-1.3-4.3-1.3-6.5
	c0-1.9,0.3-3.8,1.3-5.4c0.5-0.7,1.1-1.4,1.8-1.9C6.6,9,7.7,8,9.1,7.6c0.5-0.1,0.5,0,0.6-0.5c0-0.4-0.1-0.9-0.2-1.3
	C9.5,4.9,9.6,3.9,9.8,3z"/>
</svg>
