<svg xmlns="http://www.w3.org/2000/svg" viewBox="0 0 170 100" fill="#111111"><path d="M64.76,4.28q1.14,3.35,2.51,6.6c.74,1.75,3.64,1,2.89-.8q-1.36-3.25-2.51-6.6c-.62-1.82-3.51-1-2.89.8Z"/><path d="M23.57,22.47l4.66,3c1.63,1.05,3.14-1.55,1.52-2.59l-4.67-3c-1.62-1.05-3.13,1.55-1.51,2.59Z"/><path d="M15,52.25a39.21,39.21,0,0,0,7.66.1c1.91-.15,1.93-3.15,0-3a39.21,39.21,0,0,1-7.66-.1c-1.92-.21-1.9,2.79,0,3Z"/><path d="M36.83,88.68,42,84.5a1.5,1.5,0,0,0,0-2.12,1.53,1.53,0,0,0-2.12,0l-5.18,4.18a1.5,1.5,0,0,0,0,2.12,1.53,1.53,0,0,0,2.12,0Z"/><path d="M71.17,90.84A26.38,26.38,0,0,0,68,96.39a1.55,1.55,0,0,0,.54,2,1.52,1.52,0,0,0,2-.54,26.31,26.31,0,0,1,3.19-5.54c1.16-1.55-1.44-3-2.59-1.52Z"/><path d="M106,91.61l3.37,5c1.08,1.59,3.68.09,2.59-1.51l-3.37-5c-1.08-1.59-3.68-.09-2.59,1.52Z"/><path d="M139.26,79.57a41,41,0,0,1,4,4.36,1.5,1.5,0,0,0,2.12,0,1.54,1.54,0,0,0,0-2.12,41,41,0,0,0-4-4.36c-1.39-1.33-3.52.78-2.12,2.12Z"/><path d="M154.32,51.81a33.94,33.94,0,0,0,9.06-.29c1.9-.3,1.1-3.19-.79-2.89a31.38,31.38,0,0,1-8.27.18c-1.92-.2-1.91,2.8,0,3Z"/><path d="M151.65,18.71l-3,4.34c-1.1,1.6,1.5,3.1,2.59,1.51l3-4.34c1.1-1.6-1.5-3.1-2.59-1.51Z"/><path d="M114.72,6.75,112,11.37a1.5,1.5,0,0,0,2.59,1.52l2.74-4.62a1.5,1.5,0,0,0-2.59-1.52Z"/></svg>