<svg id="レイヤー_1" data-name="レイヤー 1" xmlns="http://www.w3.org/2000/svg" viewBox="0 0 170 100"><title>アートボード 1</title><path d="M83.08,2.58a49.62,49.62,0,0,1-.28,7c-.22,1.91,2.78,1.9,3,0a49.62,49.62,0,0,0,.28-7c-.06-1.92-3.06-1.93-3,0Z"/><path d="M19.62,74.67A14.69,14.69,0,0,1,25,72.53c1.9-.37,1.09-3.26-.8-2.9a17.3,17.3,0,0,0-6.08,2.45c-1.62,1-.12,3.63,1.52,2.59Z"/><path d="M54.34,89.36a16.08,16.08,0,0,0-2.48,6.57,1.56,1.56,0,0,0,1,1.85,1.51,1.51,0,0,0,1.85-1,14.09,14.09,0,0,1,2.18-5.86c1-1.62-1.54-3.13-2.59-1.51Z"/><path d="M82.84,91.33a36.43,36.43,0,0,0,.25,6,1.55,1.55,0,0,0,1.5,1.5,1.5,1.5,0,0,0,1.5-1.5,36.43,36.43,0,0,1-.25-6c.07-1.93-2.93-1.92-3,0Z"/><path d="M114.27,90.4a39.82,39.82,0,0,1,3.6,5.39c.94,1.69,3.54.18,2.59-1.51a42.76,42.76,0,0,0-4.07-6c-1.21-1.51-3.32.63-2.12,2.12Z"/><path d="M154.67,73.07l7.53,2.17a1.5,1.5,0,0,0,.79-2.89l-7.52-2.17a1.5,1.5,0,0,0-.8,2.89Z"/><path d="M159,37.24a36,36,0,0,1,9.46-3.5c1.89-.41,1.09-3.3-.79-2.89a38.93,38.93,0,0,0-10.18,3.8c-1.7.91-.19,3.5,1.51,2.59Z"/><path d="M136.63,19.09l2-3A1.5,1.5,0,1,0,136,14.58l-2,3a1.5,1.5,0,0,0,2.59,1.51Z"/><path d="M37.69,11.73a40.64,40.64,0,0,1,4.16,4.82,1.55,1.55,0,0,0,2,.53,1.51,1.51,0,0,0,.54-2,46,46,0,0,0-4.63-5.42,1.5,1.5,0,0,0-2.12,2.12Z"/><path d="M10.62,30.58a38.7,38.7,0,0,1,5.59,2.94c1.64,1,3.15-1.57,1.51-2.59a42.74,42.74,0,0,0-6.31-3.25,1.51,1.51,0,0,0-1.84,1.05,1.54,1.54,0,0,0,1,1.85Z"/></svg>